<svg version="1.1" xmlns="http://www.w3.org/2000/svg" viewBox="0 0 510.6447296142578 444.0832214355469" width="1021.2894592285156" height="888.1664428710938">
  <!-- svg-source:excalidraw -->
  
  <defs>
    <style>
      @font-face {
        font-family: "Virgil";
        src: url("https://excalidraw.com/FG_Virgil.woff2");
      }
      @font-face {
        font-family: "Cascadia";
        src: url("https://excalidraw.com/Cascadia.woff2");
      }
    </style>
  </defs>
  <rect x="0" y="0" width="510.6447296142578" height="444.0832214355469" fill="#ffffff"></rect><g transform="translate(32.81787109375 256.1564025878906) rotate(0 70.02447509765625 25.24969482421875)"><path d="M-0.18029770627617836 0.8494203425943851 C43.36026450166303 -1.4020834779430722, 88.0821278265456 -0.41550847050441253, 141.11144783720374 -0.17632826790213585 M139.70837036147714 -0.12915906682610512 C141.61651500047043 14.485786736248635, 138.58019038022354 32.366750453141734, 141.28970411792397 50.93198802694678 M139.14777233824134 49.74305096641183 C83.11065378994843 49.94269916351454, 27.807936944536365 52.195765107232496, 0.9327086471021175 49.2784939147532 M0.7202222682535648 52.34850051626563 C-1.1603199985713286 40.40554075580519, -0.41245348722641895 30.21138699510061, 0.5408481694757938 -0.7180112339556217" stroke="#000000" stroke-width="1.5" fill="none" stroke-dasharray="12 8"></path></g><g transform="translate(39.84234619140625 268.9060974121094) rotate(0 63 12.5)"><text x="63" y="18" font-family="Virgil, Segoe UI Emoji" font-size="20px" fill="#000000" text-anchor="middle" style="white-space: pre;" direction="ltr">Raspberry Pi</text></g><g transform="translate(32.589599609375 337.6722717285156) rotate(0 70.02447509765625 25.24969482421875)"><path d="M-0.43823084607720375 -1.8411709927022457 C44.23765336063573 -1.2204226911216234, 85.90880352804203 1.9329461395592238, 139.41929533705115 1.9303368665277958 M138.80536142364144 -1.2735973335802555 C137.79510065907442 14.298212960928437, 140.86355814331972 25.16875601300549, 141.49791649356484 49.55157258734107 M140.88298800215125 50.33836356177926 C97.68571868721499 50.50012916715298, 58.02119091890958 51.38043815286312, -1.6867052055895329 51.55241063609719 M-1.766511645168066 51.21576574072242 C0.06479874636107752 39.867811113215495, 1.7060215809481747 28.285752329214436, -0.9689417742192745 0.2116166613996029" stroke="#000000" stroke-width="1.5" fill="none" stroke-dasharray="12 8"></path></g><g transform="translate(56.11407470703125 350.4219665527344) rotate(0 46.5 12.5)"><text x="46.5" y="18" font-family="Virgil, Segoe UI Emoji" font-size="20px" fill="#000000" text-anchor="middle" style="white-space: pre;" direction="ltr">PiCamera</text></g><g transform="translate(41.616790771484375 10) rotate(0 60.20631408691406 46.11582946777344)"><path d="M-1.052137579768896 0.26688697561621666 C34.33488532556616 -0.30363568504629646, 72.11281170380161 -1.445211379130464, 120.65774003043771 -0.20556959882378578 M-0.44943289645016193 -0.5753445457667112 C41.386188485061 2.134249634373486, 83.26497507348134 1.3093417950752375, 120.86577810160816 0.0001638699322938919 M119.34530774131417 -0.6245978809893131 C118.07840638851577 27.476766052590673, 120.04070084785873 52.23355219686402, 120.25843623653054 93.23265364393592 M121.11212028376758 -0.8163611125200987 C120.08248643865728 22.80361599432217, 119.72529112091208 45.75814395870838, 121.2354195844382 93.19584049470723 M121.67119315639138 92.42193224653602 C84.87499588141296 92.66941706824008, 47.16037590745992 92.13694934534732, 0.43955007568001747 93.75336208567023 M119.99636442773044 92.76437105424702 C96.07748766856406 92.4314363205306, 69.65136107724436 91.31802674173039, -0.39140080101788044 92.92359300144017 M0.6546446420252323 92.58317413553596 C-0.7533150699273568 61.186117590229784, 0.26503255103669354 30.953028177491966, -0.1156298778951168 -1.5698358751833439 M0.3221349846571684 92.00950332172215 C0.7265137473051886 71.66686301047486, 0.21098179015568297 51.89082922083399, -0.04129438288509846 0.6788437534123659" stroke="#000000" stroke-width="1" fill="none"></path></g><g transform="translate(67.91633605957031 15.633621215820312) rotate(0 34 37.5)"><text x="34" y="18" font-family="Virgil, Segoe UI Emoji" font-size="20px" fill="#000000" text-anchor="middle" style="white-space: pre;" direction="ltr">S3</text><text x="34" y="43" font-family="Virgil, Segoe UI Emoji" font-size="20px" fill="#000000" text-anchor="middle" style="white-space: pre;" direction="ltr">Vehicle</text><text x="34" y="68" font-family="Virgil, Segoe UI Emoji" font-size="20px" fill="#000000" text-anchor="middle" style="white-space: pre;" direction="ltr">Photos</text></g><g transform="translate(199.7425994873047 10.372024536132812) rotate(0 60.20631408691406 46.11582946777344)"><path d="M-0.4591539837419987 0.17805078998208046 C41.227261928639706 2.01860685727061, 83.29615083296477 1.8933044233030198, 122.1598315499723 -0.7458301447331905 M0.32077701576054096 0.22732777707278728 C23.620836781184103 -1.0693945644311993, 49.02864076352661 0.6276760937757404, 120.17559184320271 0.019284380599856377 M119.7005505822599 -0.6974225901067257 C118.76887672313448 34.629536794047816, 121.31818085082766 71.84117406516525, 119.51167097315192 94.12662509456277 M119.95609750039876 0.8078628908842802 C119.92074071335824 27.0863931446781, 119.62936024832757 55.12116233584985, 119.5892192889005 91.46137459389865 M119.86089220270514 91.38459685817361 C88.51708886845066 93.95938868437217, 55.72055344801454 91.61694605265068, 1.983654286712408 93.20773283019662 M119.83437033183873 93.14736826531589 C84.1147860433512 91.37071169132835, 46.65687663584512 90.0831517648185, -0.5551652740687132 91.84871436469257 M-0.2951457239687443 93.25241724029183 C0.13491856212226527 56.12089676132746, -0.5157513702431522 19.822540497450973, 1.3926149867475033 -1.0819747112691402 M0.7713303733617067 93.12011147849262 C-0.3571001169233563 63.715573348949235, -1.1379100558309796 37.575452867721275, -0.36461750976741314 -0.45181398279964924" stroke="#000000" stroke-width="1" fill="none"></path></g><g transform="translate(211.94891357421875 18.98785400390625) rotate(0 48 37.5)"><text x="48" y="18" font-family="Virgil, Segoe UI Emoji" font-size="20px" fill="#000000" text-anchor="middle" style="white-space: pre;" direction="ltr">Lamda</text><text x="48" y="43" font-family="Virgil, Segoe UI Emoji" font-size="20px" fill="#000000" text-anchor="middle" style="white-space: pre;" direction="ltr">Trigger</text><text x="48" y="68" font-family="Virgil, Segoe UI Emoji" font-size="20px" fill="#000000" text-anchor="middle" style="white-space: pre;" direction="ltr">(JS/Node)</text></g><g transform="translate(359.95188903808594 11.517135620117188) rotate(0 70.34642028808594 45.23085021972656)"><path d="M-0.4505881927907467 1.6573457978665829 C33.77833548451022 -0.5515192975250698, 64.29098490033658 1.210904337004044, 138.85643449798226 -1.1578002907335758 M-0.3336827028542757 0.8022505212575197 C40.391765260950564 -0.3150081573894974, 82.48545167385208 -0.2601895867756363, 141.41180707328022 -0.768218083307147 M140.82958570495248 0.8241113685071468 C141.1020107039301 23.178933067861085, 140.37380681122227 41.26119846228338, 139.3509066440165 89.96886136755347 M140.53342391364276 0.7982830572873354 C139.91520179986003 19.55379262002826, 139.67992802142146 37.49260792312563, 141.4951440822333 90.45424153096974 M139.4613564349711 89.49072053655982 C101.00308839939348 91.85514892704555, 55.72234493046625 89.95959068901607, 1.5755156613886356 90.17819133028388 M141.56593389622867 89.54935290105641 C107.47835673835448 90.06977237968044, 74.98204049051446 88.99697788266735, -0.0010496247559785843 89.79526384361088 M0.8379124738276005 89.33472457155585 C-1.0952285163878521 61.30193435950123, 0.07002309627541703 30.05200776438997, -0.3119625709950924 1.2547354958951473 M0.48815144412219524 90.02005966193974 C0.3571756256637588 65.92247405367779, 0.20502028594589383 43.09181234983478, 0.9375081788748503 0.45730246789753437" stroke="#000000" stroke-width="1" fill="none"></path></g><g transform="translate(364.658203125 20.132965087890625) rotate(0 64.5 37.5)"><text x="64.5" y="18" font-family="Virgil, Segoe UI Emoji" font-size="20px" fill="#000000" text-anchor="middle" style="white-space: pre;" direction="ltr">DynamoDB</text><text x="64.5" y="43" font-family="Virgil, Segoe UI Emoji" font-size="20px" fill="#000000" text-anchor="middle" style="white-space: pre;" direction="ltr">Vehicle/Speed</text><text x="64.5" y="68" font-family="Virgil, Segoe UI Emoji" font-size="20px" fill="#000000" text-anchor="middle" style="white-space: pre;" direction="ltr">Data</text></g><g transform="translate(385.80084228515625 144.64736938476562) rotate(0 43 12.5)"><text x="43" y="18" font-family="Virgil, Segoe UI Emoji" font-size="20px" fill="#000000" text-anchor="middle" style="white-space: pre;" direction="ltr">GraphQL</text></g><g transform="translate(359.6568145751953 136.62889099121094) rotate(0 70.34642028808594 21.080337524414062)"><path d="M-1.712286677211523 -1.7901956774294376 C37.39817993627408 -0.668272660088574, 70.59437424141008 -0.01884798796180398, 139.79811278358102 -1.4052761532366276 M-0.17894010432064533 0.3822243381291628 C56.028860612151625 0.6275594283057542, 111.92069567615808 0.6353008199645371, 140.94258345477283 -0.6615070533007383 M140.96627131476998 -1.224817130714655 C141.52696331068802 14.871109813431161, 139.58180232569504 30.310447249520337, 139.42265847697854 41.20056488737464 M140.029684914276 0.8130446244031191 C140.874870690271 9.916883131831817, 141.22958180563126 19.71049710617946, 140.03089101426303 41.19337214715779 M139.27303746715188 42.84479954466224 C107.40265820095296 42.31681792499227, 75.65243045452942 41.53921775581045, 0.749264869838953 41.925207044929266 M140.12282950989902 43.15649499185383 C85.58184931364644 42.95368890137663, 31.752613425865547 42.94880745978346, 0.09862781874835491 43.02411385066807 M-1.5159872435033321 43.94044389948249 C-0.4055117015823413 31.829609360978665, 0.9758882875457715 24.726980236293194, 1.0685203410685062 -1.4546162821352482 M0.07089163176715374 42.170632081106305 C0.5747760691224044 28.829174708512838, -0.9969158611716324 16.58142346690082, -0.21883015520870686 0.8495779205113649" stroke="#000000" stroke-width="1" fill="none"></path></g><g transform="translate(359.2676544189453 260.68226623535156) rotate(0 70.34642028808594 45.23085021972656)"><path d="M-0.680031631141901 -1.8068668507039547 C43.48597275346569 1.6324246075539446, 85.48073919251664 1.4942132380394793, 141.06111576780677 1.0117754079401493 M0.2506357003003359 0.4358891975134611 C38.86990812797909 0.672335685963912, 76.95971774132678 -0.8909848911807108, 140.48006905801594 -0.6939529050141573 M139.77541878446937 -0.8673072718083858 C138.42881279427922 28.798374552692266, 142.03252976376928 56.76182020165581, 141.46852770075202 89.65489104762673 M140.4960483480245 0.6423550974577665 C139.4564786539516 20.330151319340345, 140.83833122114748 40.10670600985085, 141.03949423320591 89.7803791295737 M141.63977041468024 91.71193507686257 C97.41868225621597 91.13167012501523, 58.00365107407006 90.45795918274686, -0.6894023157656193 92.32251611724496 M140.75840015895665 91.08832104317844 C102.07269384545157 92.02908246197815, 64.10520538167792 92.74968598761673, 0.11176921613514423 89.67353249900043 M-0.7477433420717716 92.14283529296517 C-2.1352984945388465 59.26463446891175, -1.131946210107389 29.82018379744622, -1.379165980964899 -1.7210671566426754 M0.27530099637806416 89.51609660498798 C1.1847339781979094 70.65176526102815, 0.41797738401684853 50.79062109663374, 0.07213814742863178 0.1805145274847746" stroke="#000000" stroke-width="1" fill="none"></path></g><g transform="translate(389.61407470703125 280.9131164550781) rotate(0 40 25)"><text x="40" y="18" font-family="Virgil, Segoe UI Emoji" font-size="20px" fill="#000000" text-anchor="middle" style="white-space: pre;" direction="ltr">React</text><text x="40" y="43" font-family="Virgil, Segoe UI Emoji" font-size="20px" fill="#000000" text-anchor="middle" style="white-space: pre;" direction="ltr">Web app</text></g><g><g transform="translate(102.05593872070312 335.3106994628906) rotate(0 0.6122512854635715 -13.200897953487015)"><path d="M-0.7733975730836391 -0.6742503203451633 C-0.4556290072699387 -5.3721118884782, 1.4993278977771602 -23.664556205024322, 1.9979001440107824 -27.98796022310853 M1.0214299717079847 1.5861643161345276 C1.1436833122900376 -2.997134408854569, 0.8112440077991535 -21.84200933337522, 0.8728176551591604 -26.88477957974188" stroke="#000000" stroke-width="1" fill="none"></path></g><g transform="translate(102.05593872070312 335.3106994628906) rotate(0 0.6122512854635715 -13.200897953487015)"><path d="M4.816689977443779 -14.476830724513395 C3.1730507467808473 -18.191738458436806, 3.2841830602354767 -22.718613452896147, 0.44378781940195844 -26.385671076767213 M5.093458405301886 -13.851814205424457 C3.8506821318718694 -17.634400224189644, 2.857446326243352 -19.687571291092603, 0.33250290448266173 -26.4354407780029" stroke="#000000" stroke-width="1" fill="none"></path></g><g transform="translate(102.05593872070312 335.3106994628906) rotate(0 0.6122512854635715 -13.200897953487015)"><path d="M-4.5070635370070855 -14.441991303017925 C-3.282705066481522 -18.10752449782315, -0.3035172157318484 -22.64511635599852, 0.44378781940195844 -26.385671076767213 M-4.230295109148978 -13.816974783928988 C-3.2401589038206002 -17.70077997161133, -2.000308340353542 -19.762295257087647, 0.33250290448266173 -26.4354407780029" stroke="#000000" stroke-width="1" fill="none"></path></g></g><g><g transform="translate(100.9635009765625 254.40219116210938) rotate(0 0.9458140494799068 -75.07826144260818)"><path d="M0.8544255651533603 -0.023544482141733214 C1.0649495122333368 -24.70421575283011, 2.2004089909295237 -123.66820268208782, 2.034925094991922 -148.62346425428987 M-0.15613974248059104 -1.0815092806052418 C-0.0762914858727406 -26.018435331288103, 1.2661074728301418 -125.57678285738143, 1.6561384629737588 -150.13297840307467" stroke="#000000" stroke-width="1" fill="none"></path></g><g transform="translate(100.9635009765625 254.40219116210938) rotate(0 0.9458140494799068 -75.07826144260818)"><path d="M11.472987098882202 -119.99106733096757 C9.995102951437103 -133.8660022534135, 4.518297798699659 -143.290091835808, 2.1216132212709637 -149.2009206386935 M11.24010630723298 -121.37976103058078 C9.298509318486799 -129.36826052342866, 7.3359919660237365 -136.88128837764913, 0.8290458284597846 -150.7215390271228" stroke="#000000" stroke-width="1" fill="none"></path></g><g transform="translate(100.9635009765625 254.40219116210938) rotate(0 0.9458140494799068 -75.07826144260818)"><path d="M-9.046119704776606 -120.2847650767576 C-3.049903302775209 -134.19880188226807, -1.0512876450472017 -143.5158929358341, 2.1216132212709637 -149.2009206386935 M-9.279000496425828 -121.67345877637081 C-5.7223179017470205 -129.77335448740402, -2.185361247211838 -137.20766628763926, 0.8290458284597846 -150.7215390271228" stroke="#000000" stroke-width="1" fill="none"></path></g></g><g><g transform="translate(166.55413818359375 56.663848876953125) rotate(0 16.39072915474884 0.3437996707856428)"><path d="M0.9474242605268957 1.1164798937737943 C5.9516371724506225 1.1090101204812528, 25.459685762474933 -0.15326578989624973, 30.503320518881083 -0.42888055220246313 M-0.014316732035949853 0.6570278926659374 C5.330129455480103 0.850004236595705, 27.727615847044312 0.9098464586306363, 32.79577504153363 0.883382409112528" stroke="#000000" stroke-width="1" fill="none"></path></g><g transform="translate(166.55413818359375 56.663848876953125) rotate(0 16.39072915474884 0.3437996707856428)"><path d="M19.54417631531908 5.192906457548031 C22.543992710173264 4.178779167505693, 27.40095236767987 3.003000475078381, 33.53988949939959 0.5649097953707838 M17.643444786285123 6.9177125511062805 C21.612777507999695 4.755865200440796, 25.40406430538517 3.799689341201197, 33.11678988607794 0.35358378813464797" stroke="#000000" stroke-width="1" fill="none"></path></g><g transform="translate(166.55413818359375 56.663848876953125) rotate(0 16.39072915474884 0.3437996707856428)"><path d="M19.545141567296906 -5.513133944844124 C22.510365080960664 -2.888945811735051, 27.366996710207516 -0.4264167018704619, 33.53988949939959 0.5649097953707838 M17.644410038262947 -3.788327851285875 C21.67301881667885 -3.0109787767374385, 25.46404061708027 -1.0279548384365278, 33.11678988607794 0.3535837881346481" stroke="#000000" stroke-width="1" fill="none"></path></g></g><g><g transform="translate(323.7713623046875 58.1734619140625) rotate(0 16.641485277167476 0.07186126472893761)"><path d="M-0.7410680137574672 -0.09409208670258518 C4.68914867217342 -0.046418376515309, 26.19094395612677 1.3458418967823187, 31.89962057247758 1.332816907018423 M1.0707325496803968 -1.189094377560541 C6.914652150028075 -0.9680388545027623, 28.701872879716873 -0.7440874850781014, 34.02403856809251 -0.4261167646478863" stroke="#000000" stroke-width="1" fill="none"></path></g><g transform="translate(323.7713623046875 58.1734619140625) rotate(0 16.641485277167476 0.07186126472893761)"><path d="M18.207863575601184 3.190399779876692 C23.06037226657673 4.250565704432095, 24.804253641374782 2.5841191623450066, 35.320839581700525 -1.3238275431845028 M18.796784684518816 4.781569198039459 C22.305061396985604 3.5079293892333623, 25.150445127023723 2.4352320658319098, 33.23263825264674 -0.5079392897957745" stroke="#000000" stroke-width="1" fill="none"></path></g><g transform="translate(323.7713623046875 58.1734619140625) rotate(0 16.641485277167476 0.07186126472893761)"><path d="M18.563342013021238 -8.09920082296218 C23.427881268282285 -4.295674146785732, 25.085312643421414 -3.216564656422172, 35.320839581700525 -1.3238275431845028 M19.15226312193887 -6.5080314047994134 C22.514206031310135 -5.332033305103914, 25.28242419553581 -3.9540379095959937, 33.23263825264674 -0.5079392897957745" stroke="#000000" stroke-width="1" fill="none"></path></g></g><g><g transform="translate(401.2042236328125 255.00418090820312) rotate(0 0.5508129912101936 -35.72288940486965)"><path d="M-0.27988899573683734 -0.921713212877512 C-0.2884301426510016 -13.070125623295702, -0.6753438634177048 -60.817179620017605, -0.8185598455369472 -72.65456221476197 M1.7740305521618573 1.2087834050226958 C2.2129893548817683 -10.839560218953217, 1.5665084422162425 -59.624534363749746, 1.4636828153859827 -71.6190768040251" stroke="#000000" stroke-width="1" fill="none"></path></g><g transform="translate(401.2042236328125 255.00418090820312) rotate(0 0.5508129912101936 -35.72288940486965)"><path d="M10.481332600662595 -44.90092510423891 C7.8775433393043155 -52.088950499497834, 6.567155609742586 -58.41334407363432, 2.3715064115356657 -70.06626706267707 M11.40319923552323 -43.476593746536295 C9.579418388416999 -52.420535394927526, 5.816328996953501 -59.13619385245068, 0.8078041057568046 -71.54026931407861" stroke="#000000" stroke-width="1" fill="none"></path></g><g transform="translate(401.2042236328125 255.00418090820312) rotate(0 0.5508129912101936 -35.72288940486965)"><path d="M-10.038761579389801 -44.68706246697077 C-7.7990542175213715 -51.877710450964294, -4.2655248837275 -58.2525878517727, 2.3715064115356657 -70.06626706267707 M-9.116894944529166 -43.26273110926816 C-5.112041807171124 -52.1132547534991, -3.0484252055470513 -58.889639770039665, 0.8078041057568046 -71.54026931407861" stroke="#000000" stroke-width="1" fill="none"></path></g></g><g><g transform="translate(397.33709716796875 130.30264282226562) rotate(0 0.2861008492475321 -13.255138460546732)"><path d="M0.8675034441053866 0.05875041112303725 C0.8347560085356234 -4.2895829079051815, -0.6179716669023037 -22.09468769604961, -0.8589046798646449 -26.5690273322165 M-0.13619597707875064 -0.9560095683764667 C0.2658428948652 -5.074492892924075, 1.65397433902137 -21.009035754405584, 1.4021248995792122 -25.130197997791694" stroke="#000000" stroke-width="1" fill="none"></path></g><g transform="translate(397.33709716796875 130.30264282226562) rotate(0 0.2861008492475321 -13.255138460546732)"><path d="M5.689498557374513 -13.577910755947185 C4.434635464375308 -16.297812362670328, 3.1609871710606767 -18.952417919605054, 1.5809522471359174 -24.89231580682195 M5.755474306049244 -13.076474700663622 C4.53429400618763 -15.389184557273376, 3.912018532919394 -18.059967063161057, 0.7828149380135359 -24.63651875017754" stroke="#000000" stroke-width="1" fill="none"></path></g><g transform="translate(397.33709716796875 130.30264282226562) rotate(0 0.2861008492475321 -13.255138460546732)"><path d="M-3.330985435707452 -13.787155665785521 C-2.3784844150289812 -16.52104530957618, -1.4439333109251087 -19.124428062482625, 1.5809522471359174 -24.89231580682195 M-3.265009687032721 -13.285719610501959 C-2.4209393034381916 -15.548744301592473, -0.9773350268910281 -18.171605340924867, 0.7828149380135359 -24.63651875017754" stroke="#000000" stroke-width="1" fill="none"></path></g></g><g><g transform="translate(454.07843017578125 106.84915161132812) rotate(0 -0.40218364488799807 14.039328637165)"><path d="M0.07628876790404315 0.9351154960691928 C0.3490624231596788 5.640912015984456, 0.5599254491428535 23.204773950328427, 0.5384310685098171 27.698210088163613 M-1.3427983582857996 0.3804471861664207 C-1.152942850176866 4.754362787638481, -1.1602476957285157 21.496897864475223, -0.5355562482122331 25.736444598073138" stroke="#000000" stroke-width="1" fill="none"></path></g><g transform="translate(454.07843017578125 106.84915161132812) rotate(0 -0.40218364488799807 14.039328637165)"><path d="M-4.960465850052179 12.91018060349954 C-4.589450306714324 14.84871346958815, -3.2188076205637683 19.516088679918184, -0.4831258118127304 24.57233287156412 M-6.25168556591886 13.850945228924227 C-4.789242927933937 16.170191225578122, -3.601295405906301 20.432360722391593, -0.6293957188179538 25.721010447006883" stroke="#000000" stroke-width="1" fill="none"></path></g><g transform="translate(454.07843017578125 106.84915161132812) rotate(0 -0.40218364488799807 14.039328637165)"><path d="M4.393064015656719 12.316290170670783 C2.811377414674829 14.384585166784877, 2.2319734832911236 19.175776096565325, -0.4831258118127304 24.57233287156412 M3.1018442997900375 13.257054796095469 C1.974405535879115 15.712709152928461, 0.576703274131882 20.139051180463117, -0.6293957188179538 25.721010447006883" stroke="#000000" stroke-width="1" fill="none"></path></g></g><g><g transform="translate(455.68865966796875 187.21121215820312) rotate(0 0.7179718773579111 34.39056030365174)"><path d="M0.3397906221449376 0.43312155827879906 C0.591635878632466 11.812186920891206, 2.19984366868933 57.83717856829365, 2.3769017852842804 69.16621417626739 M-0.9409580305684359 -0.3850935689639301 C-0.8519544878074279 10.58160850077557, 1.6059468029470494 55.781572322643676, 1.854494651509449 67.47145973135717" stroke="#000000" stroke-width="1" fill="none"></path></g><g transform="translate(455.68865966796875 187.21121215820312) rotate(0 0.7179718773579111 34.39056030365174)"><path d="M-8.782495932738545 41.056232488149206 C-3.712621012760769 49.732822853813964, -0.7501909735412475 58.98823439885645, 0.39024543176405135 66.69737340127118 M-9.858509339477184 38.81307580731193 C-7.267474604484148 44.636244445483506, -5.5984592644153635 51.402852299030414, 0.9305059646349401 67.6135556119401" stroke="#000000" stroke-width="1" fill="none"></path></g><g transform="translate(455.68865966796875 187.21121215820312) rotate(0 0.7179718773579111 34.39056030365174)"><path d="M11.722908924792549 40.2510157380876 C9.167629992661467 49.28533241580965, 4.498921929664207 58.840407403960484, 0.39024543176405135 66.69737340127118 M10.64689551805391 38.00785905725033 C9.055471253504551 43.86974679504255, 6.5426549081079735 50.800568959034464, 0.9305059646349401 67.6135556119401" stroke="#000000" stroke-width="1" fill="none"></path></g></g><g transform="translate(10 223.45724487304688) rotate(0 95.88119506835938 105.31298828125)"><path d="M-1.3970550037920475 -1.242088045924902 C68.58749584569199 -0.5162596818345662, 138.7313751558694 -0.931982648028719, 192.29134276136756 1.0721444226801395 M192.04005820312983 -0.018523730200717993 C189.07251722483625 80.32559693974706, 189.5613376428002 156.22558014474825, 192.3923828814189 211.17769173212574 M191.62026980146766 210.3352736569941 C116.02159780638027 211.4596163621318, 41.369729857923744 208.34114605096696, 0.3686307929456234 208.80298284068704 M1.4686166122128517 210.65224040156625 C-0.8145215796446205 164.60874629407286, -1.3022972000820205 120.04741664001791, 0.9968659182834162 1.1113230916000272" stroke="#000000" stroke-width="1.5" fill="none" stroke-dasharray="12 8"></path></g><g transform="translate(14.61407470703125 403.9131164550781) rotate(0 91 12.5)"><text x="0" y="18" font-family="Virgil, Segoe UI Emoji" font-size="20px" fill="#000000" text-anchor="start" style="white-space: pre;" direction="ltr">(different project)</text></g></svg>